<svg width="48" height="48" viewBox="0 0 48 48" fill="none" xmlns="http://www.w3.org/2000/svg">
<path d="M7.45 5.5C6.92828 5.51305 6.43233 5.72951 6.068 6.10317C5.70367 6.47684 5.49984 6.97812 5.5 7.5V14.2L33.8 42.5H40.55C41.0804 42.5 41.5891 42.2893 41.9642 41.9142C42.3393 41.5391 42.55 41.0304 42.55 40.5V7.45C42.537 6.92828 42.3205 6.43233 41.9468 6.068C41.5732 5.70367 41.0719 5.49984 40.55 5.5H7.45ZM30.16 9.39C32.3995 9.39528 34.5457 10.2872 36.1292 11.8708C37.7128 13.4543 38.6047 15.6005 38.61 17.84V17.84C38.61 22.76 34.61 26.59 30.16 31.62C25.9 26.8 22.06 23.08 21.74 18.46V17.84C21.74 15.5989 22.6303 13.4496 24.2149 11.8649C25.7996 10.2803 27.9489 9.39 30.19 9.39H30.16ZM30.16 13.78C29.0832 13.78 28.0505 14.2077 27.2891 14.9691C26.5277 15.7305 26.1 16.7632 26.1 17.84C26.1 18.9168 26.5277 19.9495 27.2891 20.7109C28.0505 21.4723 29.0832 21.9 30.16 21.9C31.2368 21.9 32.2695 21.4723 33.0309 20.7109C33.7923 19.9495 34.22 18.9168 34.22 17.84C34.22 16.7632 33.7923 15.7305 33.0309 14.9691C32.2695 14.2077 31.2368 13.78 30.16 13.78ZM5.5 27.18V40.55C5.5 41.0804 5.71071 41.5891 6.08579 41.9642C6.46086 42.3393 6.96957 42.55 7.5 42.55H20.82L5.5 27.18Z" fill="white" stroke="white" stroke-linecap="round" stroke-linejoin="round"/>
</svg>
