<svg width="142" height="121" viewBox="0 0 142 121" fill="none" xmlns="http://www.w3.org/2000/svg">
<g clip-path="url(#clip0_4_205)">
<path d="M47.5152 82.2851C47.8112 82.887 48.1529 83.4768 48.5389 84.0519V84.0533C48.8516 84.5214 49.1915 84.9776 49.5586 85.4219H92.3817V85.4833C92.77 85.0195 93.1272 84.5419 93.4531 84.0505C93.8399 83.4761 94.1817 82.8868 94.4768 82.2851H47.5152ZM48.5947 84.0334V83.7479H93.4033V84.0334H48.5947ZM51.9326 87.8209H90.0595C90.8415 87.1546 91.5544 86.4482 92.1925 85.7074H49.7996C50.4377 86.4482 51.1506 87.1546 51.9326 87.8209Z" fill="#3F3D56"/>
<path d="M95.146 80.6839C94.9926 81.1306 94.8134 81.5687 94.6122 81.9997H47.3798C47.1787 81.5687 46.9994 81.1306 46.8461 80.6839H95.146Z" fill="#3F3D56"/>
<path d="M95.1759 80.5997V80.3985H46.8162V80.5997C46.6469 80.103 46.5068 79.5974 46.396 79.0826H95.5961C95.4865 79.5964 95.3465 80.1021 95.1759 80.5997Z" fill="#3F3D56"/>
<path d="M46.3083 77.196V77.4814H95.8371C95.7992 77.9253 95.7395 78.3634 95.6538 78.7972H46.3382C46.2546 78.3662 46.1928 77.9295 46.157 77.4871C46.1211 77.1132 46.1052 76.7365 46.1052 76.3554C46.1052 76.0985 46.1132 75.8431 46.1271 75.5891V75.5862C46.161 75.0453 46.226 74.5116 46.3223 73.985V73.9836C46.4059 73.5426 46.5101 73.1068 46.6349 72.6763H95.2774V72.4166C95.4407 72.9332 95.5708 73.4584 95.6678 73.9921H46.4099V74.2775H95.7176C95.7833 74.6757 95.8298 75.0772 95.857 75.482L95.863 75.5933H46.3601V75.8788H95.8769C95.8849 76.0372 95.8869 76.1956 95.8869 76.3554C95.8869 76.638 95.8769 76.9177 95.859 77.196H46.3083Z" fill="#3F3D56"/>
<path d="M95.2695 72.3909H46.7226C46.864 71.9456 47.028 71.507 47.2145 71.0751H94.7696V71.0594C94.9608 71.4961 95.1261 71.9399 95.2695 72.3909Z" fill="#3F3D56"/>
<path d="M94.6501 70.7896H47.3419C47.5889 70.2473 47.871 69.7174 48.1884 69.1998V69.4724H93.8036V69.2013C94.1203 69.7179 94.4024 70.2473 94.6501 70.7896Z" fill="#3F3D56"/>
<path d="M93.7937 69.187H48.1964C48.4712 68.7389 48.7719 68.3003 49.0985 67.8712H92.8397V67.7998C93.1862 68.2508 93.5042 68.7132 93.7937 69.187Z" fill="#3F3D56"/>
<path d="M92.6724 67.5858H49.3176C51.4865 64.8341 54.6364 62.5447 58.4452 60.9517C62.254 59.3587 66.5849 58.5193 70.995 58.5193C75.4051 58.5193 79.7361 59.3587 83.5449 60.9517C87.3537 62.5447 90.5036 64.8341 92.6724 67.5858Z" fill="#3F3D56"/>
<path opacity="0.5" d="M46.8162 80.5997C46.824 80.6281 46.834 80.6561 46.8461 80.6837H46.8162V80.5997Z" fill="black"/>
<path opacity="0.5" d="M95.1758 80.5997V80.6837H95.146C95.158 80.6561 95.168 80.6281 95.1758 80.5997Z" fill="black"/>
<path opacity="0.5" d="M95.8869 77.196V77.4814H95.8371C95.841 77.4458 95.845 77.4101 95.847 77.3744C95.851 77.3145 95.855 77.256 95.859 77.196H95.8869Z" fill="black"/>
<path opacity="0.5" d="M95.8869 75.5934V75.8788H95.8769C95.8749 75.7832 95.8689 75.689 95.863 75.5934H95.8869Z" fill="black"/>
<path opacity="0.5" d="M95.2778 72.3909V72.4173C95.2757 72.4085 95.2715 72.3997 95.2694 72.3909H95.2778Z" fill="black"/>
<path opacity="0.5" d="M48.1884 69.187H48.1964C48.1945 69.1918 48.1919 69.1964 48.1884 69.2007V69.187Z" fill="black"/>
<path opacity="0.5" d="M93.8037 69.187V69.2022C93.8007 69.197 93.7974 69.1919 93.7937 69.187H93.8037Z" fill="black"/>
<path opacity="0.5" d="M91.2642 65.9841H50.7278V66.2696H91.2642V65.9841Z" fill="black"/>
<path opacity="0.5" d="M89.6894 64.3825H52.4041V64.6679H89.6894V64.3825Z" fill="black"/>
<path opacity="0.5" d="M87.302 62.7809H54.69V63.0663H87.302V62.7809Z" fill="black"/>
<path opacity="0.5" d="M84.3045 61.1785L57.1786 61.2165L57.1794 61.5019L84.3053 61.4639L84.3045 61.1785Z" fill="black"/>
<path d="M67.3869 66.9835H55.5003V85.8569H67.3869V66.9835Z" fill="#E6E6E6"/>
<path d="M60.938 68.7606H61.4412C62.1828 68.7606 62.8941 68.9717 63.4185 69.3474C63.9429 69.7232 64.2375 70.2329 64.2375 70.7643V73.6015H58.1418V70.7643C58.1418 70.2329 58.4364 69.7232 58.9608 69.3474C59.4852 68.9717 60.1964 68.7606 60.938 68.7606Z" fill="#3F3D56"/>
<path d="M82.6794 66.8184C83.4877 66.8184 84.2629 67.0485 84.8345 67.4581C85.4061 67.8677 85.7272 68.4232 85.7272 69.0024V72.5697H79.6315V69.0024C79.6315 68.4232 79.9526 67.8677 80.5242 67.4581C81.0958 67.0485 81.871 66.8184 82.6794 66.8184Z" fill="#E6E6E6"/>
<path d="M94.2612 74.0985C94.2613 74.2688 94.2481 74.4389 94.2216 74.6081H70.996V73.6617H94.2318C94.2511 73.8066 94.2609 73.9522 94.2612 74.0985Z" fill="#E6E6E6"/>
<path d="M74.329 70.9036L74.5548 70.6536C74.4878 70.5211 74.4105 70.3914 74.3231 70.2651L74.1771 70.3496L74.2927 70.2215C74.1826 70.0661 74.0959 69.9682 74.0959 69.9682C73.8177 70.2939 73.6138 70.6493 73.4918 71.0209L73.7815 71.3418L73.4608 71.1561C73.4494 71.2192 73.4435 71.2827 73.4432 71.3463C73.4432 71.9875 73.7354 72.5072 74.0959 72.5072C74.4563 72.5072 74.7486 71.9875 74.7486 71.3463C74.7418 71.1423 74.6915 70.9403 74.5993 70.7472L74.329 70.9036Z" fill="#6C63FF"/>
<path d="M75.927 71.4595L76.3334 71.3971C76.4169 71.2694 76.4902 71.1385 76.5531 71.005L76.3664 70.9907L76.5745 70.9588C76.65 70.7931 76.6853 70.6799 76.6853 70.6799C76.1672 70.7693 75.6724 70.9172 75.2193 71.1182L75.1076 71.4919L75.064 71.1981C74.9937 71.2369 74.9268 71.2788 74.8639 71.3237C74.2312 71.777 73.9249 72.2926 74.1798 72.4753C74.4347 72.6579 75.1543 72.4385 75.7869 71.9851C75.9835 71.8374 76.1472 71.669 76.2725 71.4858L75.927 71.4595Z" fill="#6C63FF"/>
<path d="M76.0755 73.9404C75.1331 73.9836 74.1064 73.9379 73.014 73.9404V72.1483C74.0296 72.2502 75.06 72.2502 76.0755 72.1483V73.9404Z" fill="#E6E6E6"/>
<path d="M89.6698 70.9036L89.8956 70.6536C89.8286 70.5211 89.7513 70.3914 89.6639 70.2651L89.5179 70.3496L89.6335 70.2215C89.5234 70.0661 89.4367 69.9682 89.4367 69.9682C89.1585 70.2939 88.9546 70.6493 88.8326 71.0209L89.1223 71.3418L88.8016 71.1561C88.7902 71.2192 88.7843 71.2827 88.784 71.3463C88.784 71.9875 89.0762 72.5072 89.4367 72.5072C89.7972 72.5072 90.0894 71.9875 90.0894 71.3463C90.0826 71.1423 90.0323 70.9403 89.9401 70.7472L89.6698 70.9036Z" fill="#6C63FF"/>
<path d="M91.2679 71.4595L91.6743 71.3971C91.7577 71.2694 91.8311 71.1385 91.8939 71.005L91.7073 70.9907L91.9154 70.9588C91.9908 70.7931 92.0261 70.6799 92.0261 70.6799C91.5081 70.7693 91.0133 70.9172 90.5602 71.1182L90.4485 71.4919L90.4049 71.1981C90.3345 71.2369 90.2677 71.2788 90.2048 71.3237C89.5721 71.777 89.2658 72.2926 89.5207 72.4753C89.7756 72.6579 90.4951 72.4385 91.1278 71.9851C91.3243 71.8374 91.4881 71.669 91.6134 71.4858L91.2679 71.4595Z" fill="#6C63FF"/>
<path d="M91.4164 73.9404C90.474 73.9836 89.4472 73.9379 88.3549 73.9404V72.1483C89.3704 72.2502 90.4008 72.2502 91.4164 72.1483V73.9404Z" fill="#E6E6E6"/>
<path d="M56.9226 77.707C57.5959 77.707 58.1418 77.3778 58.1418 76.9717C58.1418 76.5656 57.5959 76.2364 56.9226 76.2364C56.2493 76.2364 55.7035 76.5656 55.7035 76.9717C55.7035 77.3778 56.2493 77.707 56.9226 77.707Z" fill="#3F3D56"/>
<path d="M128.794 98.0652C116.046 111.112 94.9129 119.643 71 119.643C46.8002 119.643 25.4485 110.906 12.7521 97.5943C23.6859 82.7023 45.8861 86.3914 71 86.3914C96.3768 86.3914 117.976 82.9178 128.794 98.0652Z" fill="#A6BCBC"/>
<path d="M71 90.9592C95.1394 90.9592 115.859 87.8174 127.134 100.549C127.702 100.015 128.255 99.4727 128.794 98.9225C117.975 83.7751 96.3768 87.2487 71 87.2487C45.8861 87.2487 23.6859 83.5596 12.7521 98.4516C13.2926 99.0183 13.8491 99.5764 14.4215 100.126C25.846 87.6203 47.1036 90.9592 71 90.9592Z" fill="#A4E5E0"/>
<path d="M71 121C53.6915 120.99 36.9856 116.445 24.0307 108.22C11.0758 99.9944 2.76654 88.6579 0.668932 76.3465C-1.42868 64.035 2.83021 51.599 12.643 41.3819C22.4557 31.1649 37.1447 23.8726 53.9415 20.8792C70.7383 17.8859 88.483 19.3983 103.831 25.1313C119.18 30.8644 131.072 40.4222 137.267 52.0035C143.461 63.5848 143.53 76.3898 137.461 88.0052C131.392 99.6206 119.604 109.244 104.318 115.062C94.0569 118.964 82.6166 121.003 71 121ZM71 19.6744C60.3084 19.6778 49.7584 21.4262 40.1503 24.7868C30.5422 28.1474 22.1285 33.0319 15.5474 39.0698C8.96627 45.1078 4.39071 52.1405 2.16784 59.6344C-0.055031 67.1283 0.133168 74.8865 2.71816 82.3206C5.30316 89.7546 10.217 96.6691 17.087 102.539C23.957 108.41 32.6026 113.082 42.3678 116.201C52.1331 119.32 62.7616 120.805 73.4468 120.542C84.1321 120.279 94.5935 118.276 104.037 114.684C113.863 110.923 122.316 105.559 128.712 99.0237C135.529 92.025 139.761 83.903 141.012 75.4155C142.264 66.9279 140.494 58.3516 135.869 50.4865C130.488 41.3465 121.462 33.5475 109.923 28.0665C98.3836 22.5856 84.844 19.6663 71 19.6744Z" fill="#3F3D56"/>
<path d="M71 120.715C61.7279 120.716 52.5461 119.409 43.9794 116.867C35.4126 114.325 27.6287 110.598 21.0723 105.9C14.5159 101.202 9.31555 95.6241 5.76823 89.4854C2.22091 83.3467 0.396196 76.7673 0.398317 70.1231C0.398317 42.2269 32.0701 19.5316 71 19.5316C109.93 19.5316 141.602 42.2269 141.602 70.1231C141.633 80.4937 137.188 90.6175 128.875 99.1066C122.359 105.774 113.698 111.219 103.624 114.98C93.5497 118.741 82.3595 120.708 71 120.715ZM71 19.9598C32.3995 19.9598 0.995793 42.463 0.995793 70.1231C0.996917 80.7953 5.74751 91.1891 14.5571 99.794C23.3668 108.399 35.7763 114.766 49.9823 117.971C64.1882 121.176 79.4502 121.051 93.5502 117.614C107.65 114.177 119.853 107.608 128.386 98.8611C136.628 90.4438 141.036 80.4058 141.004 70.1231C141.004 42.463 109.6 19.9598 71 19.9598Z" fill="#3F3D56"/>
<path d="M26.2889 42.7224C36.7932 42.7224 45.3086 36.6205 45.3086 29.0934C45.3086 21.5663 36.7932 15.4644 26.2889 15.4644C15.7847 15.4644 7.26929 21.5663 7.26929 29.0934C7.26929 36.6205 15.7847 42.7224 26.2889 42.7224Z" fill="#789999"/>
<path d="M106.628 46.6669C124.611 46.6669 139.19 36.2202 139.19 23.3335C139.19 10.4467 124.611 0 106.628 0C88.6439 0 74.0652 10.4467 74.0652 23.3335C74.0652 36.2202 88.6439 46.6669 106.628 46.6669Z" fill="#A6BCBC"/>
<path opacity="0.2" d="M130.85 7.74854C133.887 12.8397 134.299 18.539 132.012 23.8278C129.725 29.1166 124.888 33.6505 118.366 36.6191C111.843 39.5877 104.06 40.7978 96.4076 40.0329C88.7548 39.2681 81.7309 36.5782 76.5909 32.444C78.4464 35.5545 81.2234 38.3387 84.7295 40.6038C88.2357 42.8689 92.3872 44.5607 96.8963 45.562C101.406 46.5633 106.165 46.85 110.844 46.4025C115.523 45.955 120.01 44.7838 123.995 42.9701C127.98 41.1564 131.367 38.7436 133.921 35.8989C136.476 33.0541 138.136 29.8454 138.788 26.4951C139.44 23.1447 139.068 19.7329 137.697 16.4959C136.326 13.2589 133.99 10.2742 130.85 7.74854Z" fill="black"/>
<path d="M106.717 23.3335H106.806L108.417 89.4876H105.017L106.717 23.3335Z" fill="#3F3D56"/>
<path d="M112.646 59.3673L111.896 58.3463L106.513 60.377L107.263 61.398L112.646 59.3673Z" fill="#3F3D56"/>
<path d="M101.38 86.6225C101.38 86.6225 101.518 84.5575 104.337 84.7976L101.38 86.6225Z" fill="#3F3D56"/>
<path d="M100.584 84.6574C101.363 84.6574 101.995 84.2047 101.995 83.6463C101.995 83.0878 101.363 82.6351 100.584 82.6351C99.8044 82.6351 99.1726 83.0878 99.1726 83.6463C99.1726 84.2047 99.8044 84.6574 100.584 84.6574Z" fill="#6C63FF"/>
<path d="M100.752 85.349H100.354V87.347H100.752V85.349Z" fill="#3F3D56"/>
<path d="M119.902 90.4758C119.902 90.4758 120.04 88.4108 122.859 88.6508L119.902 90.4758Z" fill="#3F3D56"/>
<path d="M119.105 88.5107C119.885 88.5107 120.517 88.0579 120.517 87.4995C120.517 86.9411 119.885 86.4883 119.105 86.4883C118.326 86.4883 117.694 86.9411 117.694 87.4995C117.694 88.0579 118.326 88.5107 119.105 88.5107Z" fill="#6C63FF"/>
<path d="M119.274 89.2022H118.876V91.2002H119.274V89.2022Z" fill="#3F3D56"/>
<path d="M20.9203 91.332C20.9203 91.332 21.0579 89.267 23.8773 89.5071L20.9203 91.332Z" fill="#3F3D56"/>
<path d="M20.1237 89.3669C20.903 89.3669 21.5348 88.9142 21.5348 88.3558C21.5348 87.7973 20.903 87.3446 20.1237 87.3446C19.3444 87.3446 18.7126 87.7973 18.7126 88.3558C18.7126 88.9142 19.3444 89.3669 20.1237 89.3669Z" fill="#6C63FF"/>
<path d="M20.2924 90.0585H19.8941V92.0565H20.2924V90.0585Z" fill="#3F3D56"/>
<path d="M112.533 88.0497C112.533 88.0497 112.671 85.9846 115.49 86.2247L112.533 88.0497Z" fill="#3F3D56"/>
<path d="M111.737 86.0845C112.516 86.0845 113.148 85.6318 113.148 85.0734C113.148 84.5149 112.516 84.0622 111.737 84.0622C110.957 84.0622 110.326 84.5149 110.326 85.0734C110.326 85.6318 110.957 86.0845 111.737 86.0845Z" fill="#6C63FF"/>
<path d="M111.905 86.7761H111.507V88.7741H111.905V86.7761Z" fill="#3F3D56"/>
<path d="M36.1841 29.9004L38.0175 28.8496C36.5933 28.737 36.008 29.2937 35.7685 29.7342C34.6558 29.4031 33.4445 29.837 33.4445 29.837L37.1128 30.7913C36.9277 30.4371 36.6056 30.1281 36.1841 29.9004Z" fill="#3F3D56"/>
<path d="M64.0663 40.6038L65.8997 39.553C64.4754 39.4404 63.8902 39.9971 63.6507 40.4376C62.538 40.1065 61.3267 40.5404 61.3267 40.5404L64.995 41.4947C64.8099 41.1405 64.4878 40.8315 64.0663 40.6038Z" fill="#3F3D56"/>
<path d="M33.9934 49.7374L35.8268 48.6867C34.4025 48.5741 33.8173 49.1307 33.5778 49.5712C32.4651 49.2402 31.2538 49.6741 31.2538 49.6741L34.922 50.6283C34.737 50.2741 34.4148 49.9651 33.9934 49.7374Z" fill="#3F3D56"/>
<path opacity="0.2" d="M95.6957 76.5452C95.7 78.8412 95.0402 81.1129 93.7579 83.217L52.4584 68.3864L49.3176 67.2689L53.5736 67.102L90.4598 65.6577C93.971 68.5805 95.6957 72.3852 95.6957 76.5452Z" fill="black"/>
</g>
<defs>
<clipPath id="clip0_4_205">
<rect width="142" height="121" fill="white"/>
</clipPath>
</defs>
</svg>
