<svg width="34" height="42" viewBox="0 0 34 42" fill="none" xmlns="http://www.w3.org/2000/svg">
<path d="M17 21C18.1458 21 19.1271 20.5917 19.9437 19.775C20.759 18.9597 21.1666 17.9792 21.1666 16.8333C21.1666 15.6875 20.759 14.7062 19.9437 13.8896C19.1271 13.0743 18.1458 12.6667 17 12.6667C15.8541 12.6667 14.8736 13.0743 14.0583 13.8896C13.2416 14.7062 12.8333 15.6875 12.8333 16.8333C12.8333 17.9792 13.2416 18.9597 14.0583 19.775C14.8736 20.5917 15.8541 21 17 21ZM17 41.0521C16.7222 41.0521 16.4444 41 16.1666 40.8958C15.8889 40.7917 15.6458 40.6528 15.4375 40.4792C10.368 36 6.58331 31.8424 4.08331 28.0062C1.58331 24.1687 0.333313 20.5833 0.333313 17.25C0.333313 12.0417 2.00901 7.89235 5.3604 4.80207C8.7104 1.7118 12.5903 0.166656 17 0.166656C21.4097 0.166656 25.2896 1.7118 28.6396 4.80207C31.9909 7.89235 33.6666 12.0417 33.6666 17.25C33.6666 20.5833 32.4166 24.1687 29.9166 28.0062C27.4166 31.8424 23.6319 36 18.5625 40.4792C18.3541 40.6528 18.1111 40.7917 17.8333 40.8958C17.5555 41 17.2778 41.0521 17 41.0521Z" fill="#569696"/>
</svg>
